<svg xmlns="http://www.w3.org/2000/svg" width="200" height="200" viewBox="0 0 24 24" shapeRendering="crispEdges">
   <g> <rect width="1" height="1" x="13" y="3" fill="hsl(0, 0%, 0%)"></rect><rect width="1" height="1" x="14" y="3" fill="hsl(0, 0%, 0%)"></rect><rect width="1" height="1" x="15" y="3" fill="hsl(0, 0%, 0%)"></rect><rect width="1" height="1" x="11" y="4" fill="hsl(0, 0%, 0%)"></rect><rect width="1" height="1" x="12" y="4" fill="hsl(0, 0%, 0%)"></rect><rect width="1" height="1" x="13" y="4" fill="hsl(0, 0%, 0%)"></rect><rect width="1" height="1" x="14" y="4" fill="hsl(0, 0%, 100%)"></rect><rect width="1" height="1" x="15" y="4" fill="hsl(0, 0%, 0%)"></rect><rect width="1" height="1" x="16" y="4" fill="hsl(0, 0%, 0%)"></rect><rect width="1" height="1" x="9" y="5" fill="hsl(0, 0%, 0%)"></rect><rect width="1" height="1" x="10" y="5" fill="hsl(0, 0%, 0%)"></rect><rect width="1" height="1" x="11" y="5" fill="hsl(0, 0%, 0%)"></rect><rect width="1" height="1" x="12" y="5" fill="hsl(0, 0%, 100%)"></rect><rect width="1" height="1" x="13" y="5" fill="hsl(0, 0%, 100%)"></rect><rect width="1" height="1" x="14" y="5" fill="hsl(0, 0%, 100%)"></rect><rect width="1" height="1" x="15" y="5" fill="hsl(0, 0%, 100%)"></rect><rect width="1" height="1" x="16" y="5" fill="hsl(0, 0%, 0%)"></rect><rect width="1" height="1" x="7" y="6" fill="hsl(0, 0%, 0%)"></rect><rect width="1" height="1" x="8" y="6" fill="hsl(0, 0%, 0%)"></rect><rect width="1" height="1" x="9" y="6" fill="hsl(0, 0%, 0%)"></rect><rect width="1" height="1" x="10" y="6" fill="hsl(0, 0%, 100%)"></rect><rect width="1" height="1" x="11" y="6" fill="hsl(0, 0%, 100%)"></rect><rect width="1" height="1" x="12" y="6" fill="hsl(0, 0%, 100%)"></rect><rect width="1" height="1" x="13" y="6" fill="hsl(0, 0%, 100%)"></rect><rect width="1" height="1" x="14" y="6" fill="hsl(0, 0%, 100%)"></rect><rect width="1" height="1" x="15" y="6" fill="hsl(0, 0%, 100%)"></rect><rect width="1" height="1" x="16" y="6" fill="hsl(0, 0%, 0%)"></rect><rect width="1" height="1" x="5" y="7" fill="hsl(0, 0%, 0%)"></rect><rect width="1" height="1" x="6" y="7" fill="hsl(0, 0%, 0%)"></rect><rect width="1" height="1" x="7" y="7" fill="hsl(0, 0%, 0%)"></rect><rect width="1" height="1" x="8" y="7" fill="hsl(0, 0%, 100%)"></rect><rect width="1" height="1" x="9" y="7" fill="hsl(0, 0%, 100%)"></rect><rect width="1" height="1" x="10" y="7" fill="hsl(0, 0%, 100%)"></rect><rect width="1" height="1" x="11" y="7" fill="hsl(0, 0%, 100%)"></rect><rect width="1" height="1" x="12" y="7" fill="hsl(0, 0%, 100%)"></rect><rect width="1" height="1" x="13" y="7" fill="hsl(0, 0%, 100%)"></rect><rect width="1" height="1" x="14" y="7" fill="hsl(0, 0%, 100%)"></rect><rect width="1" height="1" x="15" y="7" fill="hsl(0, 0%, 100%)"></rect><rect width="1" height="1" x="16" y="7" fill="hsl(0, 0%, 0%)"></rect><rect width="1" height="1" x="3" y="8" fill="hsl(0, 0%, 0%)"></rect><rect width="1" height="1" x="4" y="8" fill="hsl(0, 0%, 0%)"></rect><rect width="1" height="1" x="5" y="8" fill="hsl(0, 0%, 0%)"></rect><rect width="1" height="1" x="6" y="8" fill="hsl(0, 0%, 100%)"></rect><rect width="1" height="1" x="7" y="8" fill="hsl(0, 0%, 100%)"></rect><rect width="1" height="1" x="8" y="8" fill="hsl(0, 0%, 100%)"></rect><rect width="1" height="1" x="9" y="8" fill="hsl(0, 0%, 100%)"></rect><rect width="1" height="1" x="10" y="8" fill="hsl(0, 0%, 100%)"></rect><rect width="1" height="1" x="11" y="8" fill="hsl(0, 0%, 100%)"></rect><rect width="1" height="1" x="12" y="8" fill="hsl(0, 0%, 100%)"></rect><rect width="1" height="1" x="13" y="8" fill="hsl(0, 0%, 100%)"></rect><rect width="1" height="1" x="14" y="8" fill="hsl(0, 0%, 100%)"></rect><rect width="1" height="1" x="15" y="8" fill="hsl(0, 0%, 100%)"></rect><rect width="1" height="1" x="16" y="8" fill="hsl(0, 0%, 0%)"></rect><rect width="1" height="1" x="3" y="9" fill="hsl(0, 0%, 0%)"></rect><rect width="1" height="1" x="4" y="9" fill="hsl(0, 0%, 100%)"></rect><rect width="1" height="1" x="5" y="9" fill="hsl(0, 0%, 100%)"></rect><rect width="1" height="1" x="6" y="9" fill="hsl(0, 0%, 100%)"></rect><rect width="1" height="1" x="7" y="9" fill="hsl(0, 0%, 100%)"></rect><rect width="1" height="1" x="8" y="9" fill="hsl(0, 0%, 100%)"></rect><rect width="1" height="1" x="9" y="9" fill="hsl(0, 0%, 100%)"></rect><rect width="1" height="1" x="10" y="9" fill="hsl(0, 0%, 100%)"></rect><rect width="1" height="1" x="11" y="9" fill="hsl(0, 0%, 100%)"></rect><rect width="1" height="1" x="12" y="9" fill="hsl(0, 0%, 100%)"></rect><rect width="1" height="1" x="13" y="9" fill="hsl(0, 0%, 100%)"></rect><rect width="1" height="1" x="14" y="9" fill="hsl(0, 0%, 100%)"></rect><rect width="1" height="1" x="15" y="9" fill="hsl(0, 0%, 100%)"></rect><rect width="1" height="1" x="16" y="9" fill="hsl(0, 0%, 0%)"></rect><rect width="1" height="1" x="3" y="10" fill="hsl(0, 0%, 0%)"></rect><rect width="1" height="1" x="4" y="10" fill="hsl(0, 0%, 100%)"></rect><rect width="1" height="1" x="5" y="10" fill="hsl(0, 0%, 100%)"></rect><rect width="1" height="1" x="6" y="10" fill="hsl(0, 0%, 100%)"></rect><rect width="1" height="1" x="7" y="10" fill="hsl(0, 0%, 100%)"></rect><rect width="1" height="1" x="8" y="10" fill="hsl(0, 0%, 100%)"></rect><rect width="1" height="1" x="9" y="10" fill="hsl(0, 0%, 100%)"></rect><rect width="1" height="1" x="10" y="10" fill="hsl(0, 0%, 100%)"></rect><rect width="1" height="1" x="11" y="10" fill="hsl(0, 0%, 100%)"></rect><rect width="1" height="1" x="12" y="10" fill="hsl(0, 0%, 100%)"></rect><rect width="1" height="1" x="13" y="10" fill="hsl(0, 0%, 100%)"></rect><rect width="1" height="1" x="14" y="10" fill="hsl(0, 0%, 100%)"></rect><rect width="1" height="1" x="15" y="10" fill="hsl(0, 0%, 100%)"></rect><rect width="1" height="1" x="16" y="10" fill="hsl(0, 0%, 0%)"></rect><rect width="1" height="1" x="3" y="11" fill="hsl(0, 0%, 0%)"></rect><rect width="1" height="1" x="4" y="11" fill="hsl(0, 0%, 0%)"></rect><rect width="1" height="1" x="5" y="11" fill="hsl(0, 0%, 0%)"></rect><rect width="1" height="1" x="6" y="11" fill="hsl(0, 0%, 100%)"></rect><rect width="1" height="1" x="7" y="11" fill="hsl(0, 0%, 100%)"></rect><rect width="1" height="1" x="8" y="11" fill="hsl(0, 0%, 100%)"></rect><rect width="1" height="1" x="9" y="11" fill="hsl(0, 0%, 100%)"></rect><rect width="1" height="1" x="10" y="11" fill="hsl(0, 0%, 100%)"></rect><rect width="1" height="1" x="11" y="11" fill="hsl(0, 0%, 100%)"></rect><rect width="1" height="1" x="12" y="11" fill="hsl(0, 0%, 100%)"></rect><rect width="1" height="1" x="13" y="11" fill="hsl(0, 0%, 100%)"></rect><rect width="1" height="1" x="14" y="11" fill="hsl(0, 0%, 100%)"></rect><rect width="1" height="1" x="15" y="11" fill="hsl(0, 0%, 100%)"></rect><rect width="1" height="1" x="16" y="11" fill="hsl(0, 0%, 0%)"></rect><rect width="1" height="1" x="5" y="12" fill="hsl(0, 0%, 0%)"></rect><rect width="1" height="1" x="6" y="12" fill="hsl(0, 0%, 0%)"></rect><rect width="1" height="1" x="7" y="12" fill="hsl(0, 0%, 0%)"></rect><rect width="1" height="1" x="8" y="12" fill="hsl(0, 0%, 100%)"></rect><rect width="1" height="1" x="9" y="12" fill="hsl(0, 0%, 100%)"></rect><rect width="1" height="1" x="10" y="12" fill="hsl(0, 0%, 100%)"></rect><rect width="1" height="1" x="11" y="12" fill="hsl(0, 0%, 100%)"></rect><rect width="1" height="1" x="12" y="12" fill="hsl(0, 0%, 100%)"></rect><rect width="1" height="1" x="13" y="12" fill="hsl(0, 0%, 100%)"></rect><rect width="1" height="1" x="14" y="12" fill="hsl(0, 0%, 100%)"></rect><rect width="1" height="1" x="15" y="12" fill="hsl(0, 0%, 100%)"></rect><rect width="1" height="1" x="16" y="12" fill="hsl(0, 0%, 0%)"></rect><rect width="1" height="1" x="7" y="13" fill="hsl(0, 0%, 0%)"></rect><rect width="1" height="1" x="8" y="13" fill="hsl(0, 0%, 0%)"></rect><rect width="1" height="1" x="9" y="13" fill="hsl(0, 0%, 0%)"></rect><rect width="1" height="1" x="10" y="13" fill="hsl(0, 0%, 100%)"></rect><rect width="1" height="1" x="11" y="13" fill="hsl(0, 0%, 100%)"></rect><rect width="1" height="1" x="12" y="13" fill="hsl(0, 0%, 100%)"></rect><rect width="1" height="1" x="13" y="13" fill="hsl(0, 0%, 100%)"></rect><rect width="1" height="1" x="14" y="13" fill="hsl(0, 0%, 100%)"></rect><rect width="1" height="1" x="15" y="13" fill="hsl(0, 0%, 100%)"></rect><rect width="1" height="1" x="16" y="13" fill="hsl(0, 0%, 0%)"></rect><rect width="1" height="1" x="9" y="14" fill="hsl(0, 0%, 0%)"></rect><rect width="1" height="1" x="10" y="14" fill="hsl(0, 0%, 0%)"></rect><rect width="1" height="1" x="11" y="14" fill="hsl(0, 0%, 0%)"></rect><rect width="1" height="1" x="12" y="14" fill="hsl(0, 0%, 100%)"></rect><rect width="1" height="1" x="13" y="14" fill="hsl(0, 0%, 100%)"></rect><rect width="1" height="1" x="14" y="14" fill="hsl(0, 0%, 100%)"></rect><rect width="1" height="1" x="15" y="14" fill="hsl(0, 0%, 100%)"></rect><rect width="1" height="1" x="16" y="14" fill="hsl(0, 0%, 0%)"></rect><rect width="1" height="1" x="11" y="15" fill="hsl(0, 0%, 0%)"></rect><rect width="1" height="1" x="12" y="15" fill="hsl(0, 0%, 0%)"></rect><rect width="1" height="1" x="13" y="15" fill="hsl(0, 0%, 0%)"></rect><rect width="1" height="1" x="14" y="15" fill="hsl(0, 0%, 100%)"></rect><rect width="1" height="1" x="15" y="15" fill="hsl(0, 0%, 0%)"></rect><rect width="1" height="1" x="16" y="15" fill="hsl(0, 0%, 0%)"></rect><rect width="1" height="1" x="13" y="16" fill="hsl(0, 0%, 0%)"></rect><rect width="1" height="1" x="14" y="16" fill="hsl(0, 0%, 0%)"></rect><rect width="1" height="1" x="15" y="16" fill="hsl(0, 0%, 0%)"></rect> </g>
</svg>