<svg xmlns="http://www.w3.org/2000/svg" shape-rendering="crispEdges" width="200" height="200" viewBox="0 0 24 24">
<g>
    <rect width="1" height="1" x="4" y="2" fill="hsl(0, 0%, 0%)"></rect><rect width="1" height="1" x="5" y="2" fill="hsl(0, 0%, 0%)"></rect><rect width="1" height="1" x="6" y="2" fill="hsl(0, 0%, 0%)"></rect><rect width="1" height="1" x="7" y="2" fill="hsl(0, 0%, 0%)"></rect><rect width="1" height="1" x="8" y="2" fill="hsl(0, 0%, 0%)"></rect><rect width="1" height="1" x="9" y="2" fill="hsl(0, 0%, 0%)"></rect><rect width="1" height="1" x="10" y="2" fill="hsl(0, 0%, 0%)"></rect><rect width="1" height="1" x="11" y="2" fill="hsl(0, 0%, 0%)"></rect><rect width="1" height="1" x="12" y="2" fill="hsl(0, 0%, 0%)"></rect><rect width="1" height="1" x="13" y="2" fill="hsl(0, 0%, 0%)"></rect><rect width="1" height="1" x="3" y="3" fill="hsl(0, 0%, 0%)"></rect><rect width="1" height="1" x="14" y="3" fill="hsl(0, 0%, 0%)"></rect><rect width="1" height="1" x="2" y="4" fill="hsl(0, 0%, 0%)"></rect><rect width="1" height="1" x="15" y="4" fill="hsl(0, 0%, 0%)"></rect><rect width="1" height="1" x="2" y="5" fill="hsl(0, 0%, 0%)"></rect><rect width="1" height="1" x="4" y="5" fill="hsl(0, 0%, 0%)"></rect><rect width="1" height="1" x="15" y="5" fill="hsl(0, 0%, 0%)"></rect><rect width="1" height="1" x="2" y="6" fill="hsl(0, 0%, 0%)"></rect><rect width="1" height="1" x="4" y="6" fill="hsl(0, 0%, 0%)"></rect><rect width="1" height="1" x="7" y="6" fill="hsl(0, 0%, 0%)"></rect><rect width="1" height="1" x="8" y="6" fill="hsl(0, 0%, 0%)"></rect><rect width="1" height="1" x="9" y="6" fill="hsl(0, 0%, 0%)"></rect><rect width="1" height="1" x="10" y="6" fill="hsl(0, 0%, 0%)"></rect><rect width="1" height="1" x="15" y="6" fill="hsl(0, 0%, 0%)"></rect><rect width="1" height="1" x="2" y="7" fill="hsl(0, 0%, 0%)"></rect><rect width="1" height="1" x="4" y="7" fill="hsl(0, 0%, 0%)"></rect><rect width="1" height="1" x="6" y="7" fill="hsl(0, 0%, 0%)"></rect><rect width="1" height="1" x="11" y="7" fill="hsl(0, 0%, 0%)"></rect><rect width="1" height="1" x="15" y="7" fill="hsl(0, 0%, 0%)"></rect><rect width="1" height="1" x="2" y="8" fill="hsl(0, 0%, 0%)"></rect><rect width="1" height="1" x="4" y="8" fill="hsl(0, 0%, 0%)"></rect><rect width="1" height="1" x="5" y="8" fill="hsl(0, 0%, 0%)"></rect><rect width="1" height="1" x="12" y="8" fill="hsl(0, 0%, 0%)"></rect><rect width="1" height="1" x="15" y="8" fill="hsl(0, 0%, 0%)"></rect><rect width="1" height="1" x="2" y="9" fill="hsl(0, 0%, 0%)"></rect><rect width="1" height="1" x="4" y="9" fill="hsl(0, 0%, 0%)"></rect><rect width="1" height="1" x="5" y="9" fill="hsl(0, 0%, 0%)"></rect><rect width="1" height="1" x="6" y="9" fill="hsl(0, 0%, 0%)"></rect><rect width="1" height="1" x="7" y="9" fill="hsl(0, 0%, 0%)"></rect><rect width="1" height="1" x="8" y="9" fill="hsl(0, 0%, 0%)"></rect><rect width="1" height="1" x="13" y="9" fill="hsl(0, 0%, 0%)"></rect><rect width="1" height="1" x="15" y="9" fill="hsl(0, 0%, 0%)"></rect><rect width="1" height="1" x="2" y="10" fill="hsl(0, 0%, 0%)"></rect><rect width="1" height="1" x="13" y="10" fill="hsl(0, 0%, 0%)"></rect><rect width="1" height="1" x="15" y="10" fill="hsl(0, 0%, 0%)"></rect><rect width="1" height="1" x="2" y="11" fill="hsl(0, 0%, 0%)"></rect><rect width="1" height="1" x="13" y="11" fill="hsl(0, 0%, 0%)"></rect><rect width="1" height="1" x="15" y="11" fill="hsl(0, 0%, 0%)"></rect><rect width="1" height="1" x="2" y="12" fill="hsl(0, 0%, 0%)"></rect><rect width="1" height="1" x="4" y="12" fill="hsl(0, 0%, 0%)"></rect><rect width="1" height="1" x="13" y="12" fill="hsl(0, 0%, 0%)"></rect><rect width="1" height="1" x="15" y="12" fill="hsl(0, 0%, 0%)"></rect><rect width="1" height="1" x="2" y="13" fill="hsl(0, 0%, 0%)"></rect><rect width="1" height="1" x="5" y="13" fill="hsl(0, 0%, 0%)"></rect><rect width="1" height="1" x="12" y="13" fill="hsl(0, 0%, 0%)"></rect><rect width="1" height="1" x="15" y="13" fill="hsl(0, 0%, 0%)"></rect><rect width="1" height="1" x="2" y="14" fill="hsl(0, 0%, 0%)"></rect><rect width="1" height="1" x="6" y="14" fill="hsl(0, 0%, 0%)"></rect><rect width="1" height="1" x="11" y="14" fill="hsl(0, 0%, 0%)"></rect><rect width="1" height="1" x="15" y="14" fill="hsl(0, 0%, 0%)"></rect><rect width="1" height="1" x="2" y="15" fill="hsl(0, 0%, 0%)"></rect><rect width="1" height="1" x="7" y="15" fill="hsl(0, 0%, 0%)"></rect><rect width="1" height="1" x="8" y="15" fill="hsl(0, 0%, 0%)"></rect><rect width="1" height="1" x="9" y="15" fill="hsl(0, 0%, 0%)"></rect><rect width="1" height="1" x="10" y="15" fill="hsl(0, 0%, 0%)"></rect><rect width="1" height="1" x="15" y="15" fill="hsl(0, 0%, 0%)"></rect><rect width="1" height="1" x="3" y="16" fill="hsl(0, 0%, 0%)"></rect><rect width="1" height="1" x="14" y="16" fill="hsl(0, 0%, 0%)"></rect><rect width="1" height="1" x="4" y="17" fill="hsl(0, 0%, 0%)"></rect><rect width="1" height="1" x="5" y="17" fill="hsl(0, 0%, 0%)"></rect><rect width="1" height="1" x="6" y="17" fill="hsl(0, 0%, 0%)"></rect><rect width="1" height="1" x="7" y="17" fill="hsl(0, 0%, 0%)"></rect><rect width="1" height="1" x="8" y="17" fill="hsl(0, 0%, 0%)"></rect><rect width="1" height="1" x="9" y="17" fill="hsl(0, 0%, 0%)"></rect><rect width="1" height="1" x="10" y="17" fill="hsl(0, 0%, 0%)"></rect><rect width="1" height="1" x="11" y="17" fill="hsl(0, 0%, 0%)"></rect><rect width="1" height="1" x="12" y="17" fill="hsl(0, 0%, 0%)"></rect><rect width="1" height="1" x="13" y="17" fill="hsl(0, 0%, 0%)"></rect>
</g>
</svg>